inDegrees=no
num_controls=7
num_derivatives=13
num_iterations=84
num_multipliers=7
num_parameters=0
num_slacks=7
num_states=26
objective=0.333899
objective_accelerations=0.037339
objective_balance=0.001326
objective_effort=0.027343
objective_height=0.266420
objective_ligament=0.001470
solver_duration=874.509707
status=Solve_Succeeded
success=true
DataType=double
version=3
OpenSimVersion=4.5
endheader
time	/jointset/ground_pelvis/pelvis_tilt/value	/jointset/ground_pelvis/pelvis_tx/value	/jointset/ground_pelvis/pelvis_ty/value	/jointset/hip_r/hip_flexion_r/value	/jointset/hip_r/hip_adduction_r/value	/jointset/hip_r/hip_rotation_r/value	/jointset/back/lumbar_extension/value	/jointset/patellofemoral_r/patellar_flexion_r/value	/jointset/knee_r/knee_flexion_r/value	/jointset/knee_r/knee_adduction_r/value	/jointset/knee_r/knee_rotation_r/value	/jointset/ankle_r/ankle_angle_r/value	/jointset/subtalar_r/subtalar_angle_r/value	/jointset/ground_pelvis/pelvis_tilt/speed	/jointset/ground_pelvis/pelvis_tx/speed	/jointset/ground_pelvis/pelvis_ty/speed	/jointset/hip_r/hip_flexion_r/speed	/jointset/hip_r/hip_adduction_r/speed	/jointset/hip_r/hip_rotation_r/speed	/jointset/back/lumbar_extension/speed	/jointset/patellofemoral_r/patellar_flexion_r/speed	/jointset/knee_r/knee_flexion_r/speed	/jointset/knee_r/knee_adduction_r/speed	/jointset/knee_r/knee_rotation_r/speed	/jointset/ankle_r/ankle_angle_r/speed	/jointset/subtalar_r/subtalar_angle_r/speed	/forceset/tau_hip_flexion_r	/forceset/tau_hip_adduction_r	/forceset/tau_hip_rotation_r	/forceset/tau_knee_flexion_r	/forceset/tau_ankle_angle_r	/forceset/tau_subtalar_angle_r	/forceset/tau_lumbar_extension	lambda_cid13_p0	lambda_cid14_p0	lambda_cid14_p1	lambda_cid14_p2	lambda_cid14_p3	lambda_cid14_p4	lambda_cid14_p5	/jointset/ground_pelvis/pelvis_tilt/accel	/jointset/ground_pelvis/pelvis_tx/accel	/jointset/ground_pelvis/pelvis_ty/accel	/jointset/hip_r/hip_flexion_r/accel	/jointset/hip_r/hip_adduction_r/accel	/jointset/hip_r/hip_rotation_r/accel	/jointset/back/lumbar_extension/accel	/jointset/patellofemoral_r/patellar_flexion_r/accel	/jointset/knee_r/knee_flexion_r/accel	/jointset/knee_r/knee_adduction_r/accel	/jointset/knee_r/knee_rotation_r/accel	/jointset/ankle_r/ankle_angle_r/accel	/jointset/subtalar_r/subtalar_angle_r/accel	gamma_cid13_p0	gamma_cid14_p0	gamma_cid14_p1	gamma_cid14_p2	gamma_cid14_p3	gamma_cid14_p4	gamma_cid14_p5
1.5	-0.1133809846017238	0.03772165567945349	0.8150383699106754	0.8366298050539812	-0.2267321421896311	-0.1210800560137509	-0.6254065198511998	0.9400264318433439	0.9400264318433423	-0.0358103919469034	0.1744704462964954	0.3068646614289756	0.1375687669913299	0.529304225236041	0.2256556038551565	0.5147917739511622	-2.087866760841378	-0.0002777496196102278	-0.1761835878430235	0.8013218158968038	-1.96243282689628	-1.962432826896287	0.4932266541877419	0.0001690220667473958	-0.5223938608327743	-0.2082761679506089	-0.1743006705643412	0.0182712165644863	0.01759046054076931	-0.2830461321048285	-0.008987807276423496	-0.006025201967466537	0.220152503501737	-9.140062543968469	-45.03215666934677	-9.732733943854125	1.09542511087426	-1.183400840800513	-627.7795490180944	53.39264744050554	0.1735916997752909	0.5538765688624127	-0.5359300488173147	-1.009068907355438	-0.2693965907585014	-0.6329976309910919	1.766505893618458	-1.330194538860269	-1.330194538860274	0.4949182597477886	-0.04164984656732273	-0.6756089415174563	-0.4630207102107164	1.744142932525295e-07	1.442523216925259e-07	-1.054561188259405e-06	1.524532601673551e-06	1.762480110966618e-08	3.330819675256448e-07	-8.090703871177699e-07
1.51	-0.1080796566684765	0.04000567413351427	0.8201584754221449	0.8157026891708672	-0.2267492632442823	-0.1228734925448419	-0.6173064859724736	0.9203380059133978	0.9203380059133937	-0.03085202844073725	0.1744712443399352	0.3016074763049931	0.1354619061341602	0.5308796117420392	0.2311205259818206	0.509121404775864	-2.097283111998283	-0.003145772912564462	-0.182561180383536	0.8185783922968662	-1.97499260050871	-1.974992600508717	0.4983597475086212	3.976821845068789e-06	-0.528957849652509	-0.2130399423447901	-0.1666461446815683	0.01637526635407636	0.01775538182835831	-0.2796157952597539	-0.006852503710784948	-0.006754267130599317	0.2132662596313882	-10.1726412736858	-44.06433828645048	-9.722184006062507	0.9135833253266117	-1.317266892092263	-622.8668172114494	53.37327589220274	0.1372605116467921	0.5386674970726512	-0.5987126930064033	-0.8669062137437241	-0.2952483982499871	-0.648494995613544	1.689248380828178	-1.179936445178043	-1.179936445178174	0.5094461338748194	-0.001667400222628665	-0.6339624861902197	-0.4746182048306805	1.631207645563143e-07	1.380606983659955e-07	-9.667506753879569e-07	1.482947794965451e-06	1.130372851841064e-08	3.316879511875935e-07	-7.83371486160488e-07
1.52	-0.1027650251930288	0.04234351530134292	0.8252186527736373	0.7946896121774127	-0.2267950131718002	-0.1247323759873449	-0.6090370833562196	0.9005317687127729	0.9005317687127724	-0.02584494574824631	0.1744708448235748	0.2962872175660159	0.1333090950528869	0.5319649336733916	0.2364201466087298	0.5028061419557506	-2.105058982910624	-0.00600352419296206	-0.1892729701253381	0.8351955634020284	-1.985995081030886	-1.985995081030894	0.5029704914541734	-7.048989389545575e-05	-0.5350085838317955	-0.2174662127713263	-0.158991618798821	0.01447931614366499	0.01792030311600947	-0.2761854584146766	-0.004717200145145616	-0.007483332293735059	0.2063800157610176	-11.20797234571594	-43.09685128193995	-9.709971256004755	0.7295108490736536	-1.462814540261439	-617.955563051326	53.41642280780231	0.07557878484648566	0.5208162689112016	-0.6649087777803701	-0.6809728584427492	-0.26734218824714	-0.6998370712489835	1.638624834638577	-1.01873592080941	-1.01873592080941	0.3904483846823107	-0.02353414073500971	-0.5729580134281029	-0.3955199166817783	1.59810449571185e-07	1.286654093404852e-07	-1.030939570464323e-06	1.367359708426467e-06	2.433380678824477e-08	3.257257417002317e-07	-8.342138300512878e-07
1.53	-0.09744204706117847	0.0447334338042036	0.8302125159681462	0.7736070967090929	-0.2268691963432928	-0.1266605012679679	-0.6006048479070654	0.8806232971635573	0.8806232971635628	-0.02079476856920943	0.1744704153492574	0.2909090092604347	0.1311138400161106	0.532544493174346	0.2415262463905906	0.4958650438414074	-2.111157184175515	-0.008829634347443802	-0.1963731541794047	0.8511279058674631	-1.995428235099698	-1.995428235099711	0.5070074084362642	-1.533298355584644e-05	-0.540549472941681	-0.2215298934647711	-0.1513382362766523	0.01248947281157497	0.01810718420747265	-0.2728662588948819	-0.002689553469660386	-0.008309895542426943	0.199465952828265	-12.24318245169585	-42.19158033528922	-9.758431003947402	0.5636044009870165	-1.495912231081441	-613.288426593788	53.40082019357771	0.03622316088793263	0.4999258776126728	-0.7238664701064271	-0.5311920404639162	-0.2896642253260457	-0.7180216170074184	1.551995868678145	-0.8649896431927294	-0.8649896431935423	0.4015067247518859	0.02022078065562212	-0.5320631219134044	-0.4036471599897098	1.649822991540843e-07	1.158662255098088e-07	-1.25662783648524e-06	1.17314313706717e-06	5.792448284798644e-08	3.149098269917276e-07	-9.663812465931737e-07
1.54	-0.09211585760867175	0.04717329711384113	0.8351339369531425	0.7524722095721399	-0.2269715243755862	-0.1286602108980335	-0.5920169976500187	0.8606286171750024	0.8606286171750007	-0.01570598354638197	0.1744705734787882	0.2854779103113255	0.1288795771695371	0.532607197801985	0.2464091079641023	0.4883177000532637	-2.115533316638479	-0.01163249635302479	-0.2035898400143456	0.8663185249801628	-2.003236768899533	-2.003236768899551	0.5106920602095276	4.703087627162719e-05	-0.5455867125373545	-0.2252677747307713	-0.1436848537545062	0.01049962947950021	0.0182940652988596	-0.269547059375097	-0.0006619067941700466	-0.009136458791091985	0.1925518898954914	-13.27486564277564	-41.28720416022215	-9.805951745592289	0.3962966228494044	-1.536416944176107	-608.6312940768763	53.44073020800676	-0.02779218981618291	0.4761686272410973	-0.7861579125404895	-0.3365590980574694	-0.2626925584669366	-0.7231374274238063	1.490280164091784	-0.6938118670138392	-0.6938118670138389	0.3199953429167326	-0.02209275083748118	-0.4722281105860213	-0.3303600311928985	1.709592379664573e-07	1.044777377814075e-07	-1.480301044636508e-06	9.763233766909938e-07	9.06768474978521e-08	3.023938759076095e-07	-1.08287797217012e-06
1.55	-0.08679156080753153	0.04966083433276031	0.8399769129236714	0.7313021781060254	-0.2271017227572358	-0.1307330925557527	-0.5832810857968812	0.8405641524021477	0.8405641524021492	-0.01058245619903579	0.1744717142111489	0.2799991042162704	0.1266096731506304	0.532170833481988	0.2510566143029308	0.4801818388242826	-2.118180221033691	-0.01440865909301375	-0.2109671168363932	0.8807269133927409	-2.009356419619808	-2.009356419619821	0.513991746412291	0.000172298003121994	-0.5500777131383359	-0.2286654180107529	-0.1360621726079158	0.008311291951624394	0.01848152760933088	-0.2664059518492202	0.001475659703056791	-0.01002025632340081	0.1856684460443743	-14.29871094685799	-40.36807131867359	-9.88186467217133	0.2405050047689653	-1.591147993432011	-604.2167742128341	53.48574450765203	-0.06375049828015389	0.4528114333601249	-0.8415925368172631	-0.1848327193955783	-0.285340953623178	-0.741889475673064	1.395578342068943	-0.5261131066340596	-0.5261131066334105	0.3314616067126703	0.02859814045058608	-0.4229488288188364	-0.3375337511934587	1.77863779586702e-07	9.47146173012796e-08	-1.701652555677095e-06	7.765042898388474e-07	1.224633316102519e-07	2.879191872602842e-07	-1.181319336417898e-06
1.56	-0.0814740660386159	0.05219360057429953	0.8447356718201623	0.7101144622741363	-0.2272597353306569	-0.1328791203149061	-0.5744051980271708	0.8204474768356723	0.8204474768356684	-0.005426630720098797	0.1744738599539777	0.2744783055564126	0.1243071792439654	0.5312467913544058	0.2554549124881116	0.4714742852457059	-2.119070189794603	-0.01719533470733998	-0.2182190603015521	0.8943137082944175	-2.01367892762407	-2.013678927624079	0.5171516865253124	0.0002480329701450383	-0.553985225497906	-0.2317857522824419	-0.1284394914613492	0.006122954423763188	0.01866898991975057	-0.2632648443233506	0.003613226200288534	-0.01090405385568504	0.1787850021932345	-15.31163970495526	-39.45030697397078	-9.957928327362341	0.08463566912623384	-1.64890640344504	-599.8180193927805	53.57673775086754	-0.1253277513327932	0.4263269965112402	-0.9004963824596094	0.0148280288027172	-0.2647951333343384	-0.6980707560460219	1.325961461911735	-0.3343833238111362	-0.3343833238111357	0.292046124968297	-0.03199918280298662	-0.3555304623041171	-0.2748982295344559	1.905981066762687e-07	8.121757215562529e-08	-2.045395808003815e-06	4.718359561888792e-07	1.715148142255555e-07	2.554875719226041e-07	-1.308623475310549e-06
1.57	-0.07616838299365214	0.05476902913404481	0.8494046082331684	0.6889267228615156	-0.2274456151333848	-0.1350981114417373	-0.5653978968278299	0.8002963842318829	0.800296384231883	-0.0002405796094119498	0.1744773162409257	0.2689212692616617	0.1219749140115756	0.5297941775434106	0.2595810477131114	0.4622276036302767	-2.118171387232896	-0.01999637674996585	-0.2254839362485756	0.9069758480682969	-2.016239268697432	-2.016239268697442	0.5201199876480065	0.0004066020040717981	-0.5573374703583109	-0.2346505414251957	-0.1204106107230744	0.003543348323881446	0.01887024727994306	-0.2610141413059375	0.006627083382382238	-0.01190891332330556	0.1716112405961083	-16.31128706255403	-38.28645007356054	-10.06367991260704	-0.0434273743741516	-1.832112433125484	-595.795237768084	53.75677437414278	-0.1695669628515108	0.3983505854095672	-0.9495293072136919	0.1733580197047348	-0.2903878167729958	-0.7262284722160547	1.210737709750753	-0.1718552629971894	-0.1718552629972735	0.3080289156160115	0.03419279962290631	-0.3122757010210618	-0.2902288386255535	2.106196656024879e-07	6.305312117806305e-08	-2.542128736938202e-06	3.610606404163489e-08	2.421475449694885e-07	2.006097982219808e-07	-1.472006082509288e-06
1.58	-0.07088009384016003	0.0573842378060237	0.8539785227787946	0.667757161804487	-0.2276600311719479	-0.1373868578196757	-0.556269094735824	0.7801286890645822	0.7801286890645789	0.004976915874450896	0.1744812397888348	0.2633332696776843	0.1196144089713624	0.5277680130576337	0.2634109349348332	0.4524699117697107	-2.115434518677187	-0.02290258187444481	-0.2321701105230195	0.9186138868271363	-2.016999440326727	-2.016999440326737	0.5234405611585404	0.0003414851632961717	-0.5601778833432146	-0.237433713847139	-0.1123817299848257	0.00096374222400459	0.0190715046400887	-0.2587634382885303	0.009640940564478184	-0.0129137727909163	0.1644374789989576	-17.29584498544452	-37.1235163672651	-10.17048352432898	-0.1703059374405342	-2.011779960977349	-591.7810021977325	53.95999841758286	-0.2400378862887027	0.367077395855314	-1.002698431486969	0.382441227602878	-0.2858277497049042	-0.5823304215300718	1.121141258904057	0.02565056500249222	0.02565056500249223	0.3625006025362137	-0.07673635774350354	-0.253164087204204	-0.2585748853724014	2.12980379031507e-07	1.370212762567242e-08	-3.134303182732758e-06	-8.855141643012111e-07	3.477854186248212e-07	6.23453543635378e-08	-1.51525775742547e-06
1.59	-0.06561483117539203	0.06003612873335679	0.8584523388366431	0.6466245766628254	-0.2279027417014054	-0.1397442638992686	-0.5470290087404082	0.759962537157948	0.7599625371579379	0.01022376892915442	0.1744852326081007	0.2577199389764351	0.1172286520193264	0.5252107483218929	0.2669047584780468	0.4422131581808003	-2.110761443815173	-0.02564160735546061	-0.2392200199300594	0.929223382123175	-2.015883352468173	-2.015883352468173	0.5259517479241979	0.000424380039958612	-0.5623847023079842	-0.2396789604832222	-0.1049864020892078	-0.001067704830369085	0.01900584812610992	-0.2555710421902698	0.01123267066271562	-0.01384749068740083	0.1577076741299022	-18.26417584002358	-36.43239775779627	-10.31124636053351	-0.31205207949286	-1.825647890322866	-588.0294886169646	53.97562183784902	-0.274634898032811	0.3312794642347296	-1.049252851519299	0.5578874233683564	-0.2691530614225868	-0.7527990907404771	1.003864145494826	0.2066904772875357	0.2066904772888687	0.1979508309972078	0.04518069964664503	-0.188720104811489	-0.2027760135899903	1.913728021428989e-07	-7.797345942112583e-08	-3.856005401408967e-06	-2.466556991766623e-06	5.009302719456221e-07	-1.890867132805113e-07	-1.395474595672475e-06
